# xmcd CD database file
# Copyright (C) 1993-1998 Ti Kan
#
# Track frame offsets:
# 150
# 15085
# 28477
# 46102
# 69352
# 84012
# 95660
# 111947
# 127887
# 146037
# 160600
# 175265
# 194915
# 213807
# 226862
#
# Disc length: 3319 seconds
# Revision: 0
# Processed by: cddbd v1.4b41PL1 Copyright (c) Steve Scherf et al.
# Submitted via: CDSpectrumPro v3.3.331
#
DISCID=bd0cf50f
DTITLE=Various Artist - Buzz One
DYEAR=1900
DGENRE=
TTITLE0=Son Volt - Drown
TTITLE1=You am I - Jewels and Bullets
TTITLE2=LoveInReverse - I inject you (edit)
TTITLE3=Ministry - Lay Lady Lay
TTITLE4=Ascheer - Wish you were dead
TTITLE5=Lush - Single Girl
TTITLE6=Cibo Matto - sugar Water
TTITLE7=Mouth - Pure
TTITLE8=Penelope Houston - Sweetheart
TTITLE9=Soul Coughing - Soft Serve
TTITLE10=The Flaming Lips - When you smile
TTITLE11=Holy barbarians - Brother Fights
TTITLE12=Filter - Dose
TTITLE13=the Goops - Change your mind
TTITLE14=Mojave 3 - Mercy
EXTD=New Music from Warner Bros. and Reprise Records
EXTT0=Album:Trace
EXTT1=Album:Hi Fi Way
EXTT2=Album:I was a dog
EXTT3=Album:Filth Pig
EXTT4=Album:Infliction
EXTT5=Album:Lovelife
EXTT6=Album:Viva la Woman
EXTT7=Album:Hole of your head
EXTT8=Album:Cut you
EXTT9=Album:Irrestible Bliss
EXTT10=Album:Clouds taste Metallica
EXTT11=Album:Cream
EXTT12=Album:Short Bus
EXTT13=Album:Lucky
EXTT14=Album:Ask me Tomorrow
PLAYORDER=
